<?xml version="1.0" standalone="no"?>
<!DOCTYPE svg PUBLIC "-//W3C//DTD SVG 20010904//EN"
 "http://www.w3.org/TR/2001/REC-SVG-20010904/DTD/svg10.dtd">
<svg version="1.0" xmlns="http://www.w3.org/2000/svg"
 width="500.000000pt" height="500.000000pt" viewBox="0 0 500.000000 500.000000"
 preserveAspectRatio="xMidYMid meet">
<metadata>
Created by potrace 1.14, written by Peter Selinger 2001-2017
</metadata>
<g transform="translate(0.000000,500.000000) scale(0.100000,-0.100000)"
fill="#000000" stroke="none">
<path d="M2890 4542 c-20 -6 -50 -43 -50 -63 0 -9 12 -38 26 -65 84 -156 96
-196 61 -218 -12 -8 -44 -16 -72 -19 -62 -6 -99 -22 -114 -51 -42 -78 5 -137
187 -238 74 -40 88 -45 114 -36 32 11 48 35 48 72 0 27 -7 33 -105 86 -33 17
-64 34 -69 37 -4 3 15 14 44 24 66 23 79 34 102 87 17 37 22 42 41 35 42 -15
131 -8 175 14 36 17 42 18 42 5 0 -9 9 -34 20 -57 20 -41 59 -71 108 -84 26
-7 24 -10 -46 -55 -77 -51 -89 -77 -57 -123 32 -45 72 -34 193 54 79 59 112
102 112 148 -1 54 -48 89 -134 97 -76 8 -79 25 -20 161 19 43 34 91 34 107 0
50 -54 83 -104 64 -8 -3 -41 -38 -73 -77 -103 -129 -152 -156 -219 -122 -38
18 -65 47 -128 137 -50 70 -81 91 -116 80z"/>
<path d="M3170 4070 c-11 -11 -20 -34 -21 -52 -3 -135 -51 -241 -119 -266 -14
-5 -83 -10 -155 -10 -221 0 -313 -46 -415 -211 -6 -11 -32 -15 -102 -16 -52
-1 -99 -4 -104 -8 -6 -3 -28 -64 -49 -135 l-39 -130 -78 -26 c-287 -94 -546
-294 -710 -546 -227 -350 -277 -802 -131 -1195 53 -143 121 -261 228 -395 66
-83 227 -223 312 -271 48 -27 54 -39 21 -40 -13 0 -30 -2 -38 -4 -8 -1 -35 -6
-60 -10 -24 -4 -47 -8 -50 -10 -3 -2 -21 -6 -42 -9 -58 -9 -150 -47 -175 -72
-19 -19 -22 -28 -13 -44 29 -55 244 -112 505 -135 17 -2 64 -6 105 -10 167
-14 603 -20 765 -10 146 9 244 16 280 20 84 10 121 15 140 19 11 2 41 7 66 10
74 10 194 43 238 65 77 40 73 77 -12 115 -58 26 -201 62 -289 72 l-58 7 63 41
c252 165 435 397 535 676 102 287 104 595 5 889 -127 380 -455 706 -834 830
l-95 32 -39 130 c-43 146 -43 146 -131 144 -59 -1 -66 7 -31 38 46 41 87 50
237 54 93 2 162 9 193 19 89 29 158 120 190 254 24 96 25 165 2 190 -23 26
-69 26 -95 0z"/>
</g>
</svg>
